REM DIRINDEX 1\2,1\3,1\4
REM DIRNAME folder01,folder02,folder03,folder04
TITLE ""
FILE "DISC1Track14.mp3" MP3
  TRACK 01 AUDIO
    TITLE "0:"
    INDEX 01 00:00:00
  TRACK 02 AUDIO
    TITLE "4:cjc105_1089"
    INDEX 01 00:00:15
  TRACK 03 AUDIO
    TITLE "0:"
    INDEX 01 00:02:61
  TRACK 04 AUDIO
    TITLE "2:cjc105_1090"
    INDEX 01 00:03:33
  TRACK 05 AUDIO
    TITLE "3:cjc105_1091"
    INDEX 01 00:05:09
  TRACK 06 AUDIO
    TITLE "0:"
    INDEX 01 00:06:47
  TRACK 07 AUDIO
    TITLE "2:cjc105_1092"
    INDEX 01 00:06:57
  TRACK 08 AUDIO
    TITLE "3:cjc105_1093"
    INDEX 01 00:08:42
  TRACK 09 AUDIO
    TITLE "0:"
    INDEX 01 00:10:10
  TRACK 10 AUDIO
    TITLE "2:cjc105_1094"
    INDEX 01 00:10:19
  TRACK 11 AUDIO
    TITLE "3:cjc105_1095"
    INDEX 01 00:12:01
  TRACK 12 AUDIO
    TITLE "0:"
    INDEX 01 00:13:33
  TRACK 13 AUDIO
    TITLE "2:cjc105_1096"
    INDEX 01 00:13:53
  TRACK 14 AUDIO
    TITLE "3:cjc105_1097"
    INDEX 01 00:15:23
  TRACK 15 AUDIO
    TITLE "0:"
    INDEX 01 00:16:73
  TRACK 16 AUDIO
    TITLE "2:cjc105_1098"
    INDEX 01 00:17:25
  TRACK 17 AUDIO
    TITLE "3:cjc105_1099"
    INDEX 01 00:19:62
  TRACK 18 AUDIO
    TITLE "0:"
    INDEX 01 00:21:09
  TRACK 19 AUDIO
    TITLE "2:cjc105_1100"
    INDEX 01 00:21:17
  TRACK 20 AUDIO
    TITLE "3:cjc105_1101"
    INDEX 01 00:23:22
  TRACK 21 AUDIO
    TITLE "0:"
    INDEX 01 00:26:13
  TRACK 22 AUDIO
    TITLE "2:cjc105_1102"
    INDEX 01 00:26:24
  TRACK 23 AUDIO
    TITLE "3:cjc105_1103"
    INDEX 01 00:28:00
  TRACK 24 AUDIO
    TITLE "0:"
    INDEX 01 00:29:58
  TRACK 25 AUDIO
    TITLE "2:cjc105_1104"
    INDEX 01 00:29:72
  TRACK 26 AUDIO
    TITLE "3:cjc105_1105"
    INDEX 01 00:31:59
  TRACK 27 AUDIO
    TITLE "0:"
    INDEX 01 00:33:28
  TRACK 28 AUDIO
    TITLE "2:cjc105_1106"
    INDEX 01 00:33:42
  TRACK 29 AUDIO
    TITLE "3:cjc105_1107"
    INDEX 01 00:35:14
  TRACK 30 AUDIO
    TITLE "0:"
    INDEX 01 00:37:10
  TRACK 31 AUDIO
    TITLE "2:cjc105_1108"
    INDEX 01 00:37:26
  TRACK 32 AUDIO
    TITLE "3:cjc105_1109"
    INDEX 01 00:38:33
  TRACK 33 AUDIO
    TITLE "0:"
    INDEX 01 00:40:19
  TRACK 34 AUDIO
    TITLE "2:cjc105_1110"
    INDEX 01 00:40:28
  TRACK 35 AUDIO
    TITLE "3:cjc105_1111"
    INDEX 01 00:43:35
  TRACK 36 AUDIO
    TITLE "0:"
    INDEX 01 00:45:55
  TRACK 37 AUDIO
    TITLE "2:cjc105_1112"
    INDEX 01 00:45:67
  TRACK 38 AUDIO
    TITLE "3:cjc105_1113"
    INDEX 01 00:47:68
  TRACK 39 AUDIO
    TITLE "0:"
    INDEX 01 00:49:31
  TRACK 40 AUDIO
    TITLE "2:cjc105_1114"
    INDEX 01 00:49:45
  TRACK 41 AUDIO
    TITLE "3:cjc105_1115"
    INDEX 01 00:51:05
  TRACK 42 AUDIO
    TITLE "0:"
    INDEX 01 00:52:43
  TRACK 43 AUDIO
    TITLE "2:cjc105_1116"
    INDEX 01 00:52:55
  TRACK 44 AUDIO
    TITLE "3:cjc105_1117"
    INDEX 01 00:53:74
  TRACK 45 AUDIO
    TITLE "0:"
    INDEX 01 00:55:18
  TRACK 46 AUDIO
    TITLE "2:cjc105_1118"
    INDEX 01 00:55:28
  TRACK 47 AUDIO
    TITLE "3:cjc105_1119"
    INDEX 01 00:56:35
  TRACK 48 AUDIO
    TITLE "0:"
    INDEX 01 00:57:62
  TRACK 49 AUDIO
    TITLE "2:cjc105_1120"
    INDEX 01 00:58:01
  TRACK 50 AUDIO
    TITLE "3:cjc105_1121"
    INDEX 01 00:59:67
  TRACK 51 AUDIO
    TITLE "0:"
    INDEX 01 01:01:09
  TRACK 52 AUDIO
    TITLE "2:cjc105_1122"
    INDEX 01 01:01:25
  TRACK 53 AUDIO
    TITLE "3:cjc105_1123"
    INDEX 01 01:02:69
  TRACK 54 AUDIO
    TITLE "0:"
    INDEX 01 01:04:31
  TRACK 55 AUDIO
    TITLE "2:cjc105_1124"
    INDEX 01 01:04:43
  TRACK 56 AUDIO
    TITLE "3:cjc105_1125"
    INDEX 01 01:06:18
  TRACK 57 AUDIO
    TITLE "0:"
    INDEX 01 01:07:63
  TRACK 58 AUDIO
    TITLE "2:cjc105_1126"
    INDEX 01 01:07:74
  TRACK 59 AUDIO
    TITLE "3:cjc105_1127"
    INDEX 01 01:09:42
  TRACK 60 AUDIO
    TITLE "0:"
    INDEX 01 01:11:02
  TRACK 61 AUDIO
    TITLE "2:cjc105_1128"
    INDEX 01 01:11:13
  TRACK 62 AUDIO
    TITLE "3:cjc105_1129"
    INDEX 01 01:12:56
  TRACK 63 AUDIO
    TITLE "0:"
    INDEX 01 01:14:43
  TRACK 64 AUDIO
    TITLE "2:cjc105_1130"
    INDEX 01 01:14:55
  TRACK 65 AUDIO
    TITLE "3:cjc105_1131"
    INDEX 01 01:16:30
  TRACK 66 AUDIO
    TITLE "0:"
    INDEX 01 01:17:67
  TRACK 67 AUDIO
    TITLE "2:cjc105_1132"
    INDEX 01 01:18:07
  TRACK 68 AUDIO
    TITLE "3:cjc105_1133"
    INDEX 01 01:19:32
  TRACK 69 AUDIO
    TITLE "0:"
    INDEX 01 01:21:27
  TRACK 70 AUDIO
    TITLE "2:cjc105_1134"
    INDEX 01 01:21:39
  TRACK 71 AUDIO
    TITLE "3:cjc105_1135"
    INDEX 01 01:24:00
  TRACK 72 AUDIO
    TITLE "0:"
    INDEX 01 01:25:49
  TRACK 73 AUDIO
    TITLE "2:cjc105_1136"
    INDEX 01 01:25:64
  TRACK 74 AUDIO
    TITLE "3:cjc105_1137"
    INDEX 01 01:27:20
  TRACK 75 AUDIO
    TITLE "0:"
    INDEX 01 01:33:42
  TRACK 76 AUDIO
    TITLE "2:cjc105_1138"
    INDEX 01 01:33:52
  TRACK 77 AUDIO
    TITLE "3:cjc105_1139"
    INDEX 01 01:35:29
  TRACK 78 AUDIO
    TITLE "0:"
    INDEX 01 01:37:01
  TRACK 79 AUDIO
    TITLE "2:cjc105_1140"
    INDEX 01 01:37:19
  TRACK 80 AUDIO
    TITLE "3:cjc105_1141"
    INDEX 01 01:39:08
  TRACK 81 AUDIO
    TITLE "0:"
    INDEX 01 01:42:12
  TRACK 82 AUDIO
    TITLE "2:cjc105_1142"
    INDEX 01 01:42:26
  TRACK 83 AUDIO
    TITLE "3:cjc105_1143"
    INDEX 01 01:43:58
  TRACK 84 AUDIO
    TITLE "0:"
    INDEX 01 01:45:02
  TRACK 85 AUDIO
    TITLE "2:cjc105_1144"
    INDEX 01 01:45:12
  TRACK 86 AUDIO
    TITLE "3:cjc105_1145"
    INDEX 01 01:46:43
  TRACK 87 AUDIO
    TITLE "0:"
    INDEX 01 01:48:11
  TRACK 88 AUDIO
    TITLE "2:cjc105_1146"
    INDEX 01 01:48:26
  TRACK 89 AUDIO
    TITLE "3:cjc105_1147"
    INDEX 01 01:49:53
  TRACK 90 AUDIO
    TITLE "0:"
    INDEX 01 01:51:03
  TRACK 91 AUDIO
    TITLE "2:cjc105_1148"
    INDEX 01 01:51:19
  TRACK 92 AUDIO
    TITLE "3:cjc105_1149"
    INDEX 01 01:52:46
  TRACK 93 AUDIO
    TITLE "0:"
    INDEX 01 01:53:70
  TRACK 94 AUDIO
    TITLE "2:cjc105_1150"
    INDEX 01 01:54:05
  TRACK 95 AUDIO
    TITLE "3:cjc105_1151"
    INDEX 01 01:55:40
  TRACK 96 AUDIO
    TITLE "0:"
    INDEX 01 01:56:69
  TRACK 97 AUDIO
    TITLE "2:cjc105_1152"
    INDEX 01 01:57:13
  TRACK 98 AUDIO
    TITLE "3:cjc105_1153"
    INDEX 01 01:59:01
  TRACK 99 AUDIO
    TITLE "0:"
    INDEX 01 02:00:25
  TRACK 100 AUDIO
    TITLE "2:cjc105_1154"
    INDEX 01 02:00:45
  TRACK 101 AUDIO
    TITLE "3:cjc105_1155"
    INDEX 01 02:01:54
  TRACK 102 AUDIO
    TITLE "0:"
    INDEX 01 02:03:16
  TRACK 103 AUDIO
    TITLE "2:cjc105_1156"
    INDEX 01 02:03:32
  TRACK 104 AUDIO
    TITLE "3:cjc105_1157"
    INDEX 01 02:04:51
  TRACK 105 AUDIO
    TITLE "0:"
    INDEX 01 02:06:08
